<?xml version="1.0" standalone="no"?>
<!DOCTYPE svg PUBLIC "-//W3C//DTD SVG 20010904//EN"
 "http://www.w3.org/TR/2001/REC-SVG-20010904/DTD/svg10.dtd">
<svg version="1.0" xmlns="http://www.w3.org/2000/svg"
 width="800.000000pt" height="800.000000pt" viewBox="0 0 800.000000 800.000000"
 preserveAspectRatio="xMidYMid meet">
<metadata>
Created by potrace 1.16, written by Peter Selinger 2001-2019
</metadata>
<g transform="translate(0.000000,800.000000) scale(0.100000,-0.100000)"
fill="#000000" stroke="none">
<path d="M1710 6491 c-83 -26 -141 -74 -181 -151 l-24 -45 -3 -2280 c-2 -2556
-9 -2335 72 -2423 22 -25 64 -56 91 -68 l50 -24 1228 0 1227 0 0 965 0 965
-325 0 -325 0 0 380 0 380 325 0 325 0 0 308 c0 169 5 349 10 400 39 367 225
636 526 762 148 61 209 72 437 77 184 5 536 -9 570 -22 9 -4 11 -82 9 -339
l-3 -334 -262 -4 c-299 -5 -335 -12 -410 -78 -31 -28 -53 -59 -69 -98 -21 -54
-22 -73 -26 -364 l-4 -308 377 0 376 0 -5 -32 c-3 -18 -13 -85 -21 -148 -37
-288 -54 -419 -60 -470 -3 -30 -8 -67 -11 -82 l-6 -28 -324 0 -324 0 0 -965 0
-965 668 0 667 0 50 24 c64 29 112 77 141 141 l24 50 0 2285 c0 2275 -1 2285
-21 2330 -29 65 -94 127 -157 150 -52 20 -80 20 -2320 19 -1247 0 -2278 -4
-2292 -8z"/>
</g>
</svg>
