<?xml version="1.0" standalone="no"?>
<!DOCTYPE svg PUBLIC "-//W3C//DTD SVG 20010904//EN"
 "http://www.w3.org/TR/2001/REC-SVG-20010904/DTD/svg10.dtd">
<svg version="1.0" xmlns="http://www.w3.org/2000/svg"
 width="1600.000000pt" height="1600.000000pt" viewBox="0 0 1600.000000 1600.000000"
 preserveAspectRatio="xMidYMid meet">
<metadata>
Created by potrace 1.16, written by Peter Selinger 2001-2019
</metadata>
<g transform="translate(0.000000,1600.000000) scale(0.100000,-0.100000)"
fill="#000000" stroke="none">
<path d="M4320 15994 c-19 -2 -87 -9 -150 -15 -1041 -96 -2046 -575 -2810
-1339 -760 -759 -1223 -1727 -1342 -2805 -19 -177 -19 -7493 0 -7670 155
-1400 902 -2626 2072 -3402 620 -411 1325 -662 2085 -745 178 -19 7474 -19
7650 0 574 63 1065 204 1570 452 935 458 1676 1199 2135 2135 239 486 375 949
447 1515 17 138 18 317 18 3880 0 3563 -1 3742 -18 3880 -105 830 -387 1552
-859 2203 -497 686 -1186 1232 -1968 1562 -329 138 -727 251 -1075 305 -309
47 -48 44 -4020 46 -2035 0 -3716 -1 -3735 -2z m7485 -1257 c427 -66 739 -163
1098 -343 630 -316 1166 -850 1486 -1483 184 -364 289 -701 348 -1116 17 -124
18 -295 18 -3805 l0 -3675 -23 -145 c-64 -407 -167 -733 -338 -1070 -506
-1003 -1464 -1679 -2599 -1837 -123 -17 -316 -18 -3795 -18 -3480 0 -3672 1
-3795 18 -396 55 -751 164 -1096 338 -928 464 -1597 1339 -1804 2357 -65 321
-60 -7 -60 4042 0 3479 1 3672 18 3795 104 747 419 1400 931 1932 490 510
1147 860 1841 983 288 50 93 48 4005 46 3387 -2 3663 -3 3765 -19z"/>
<path d="M12430 13525 c-341 -70 -605 -314 -706 -652 -36 -119 -44 -311 -19
-434 71 -352 321 -622 670 -721 68 -19 103 -23 240 -23 190 0 261 16 420 95
258 128 444 378 494 664 14 77 14 245 0 322 -67 379 -359 677 -737 750 -91 17
-275 17 -362 -1z"/>
<path d="M7645 12299 c-992 -85 -1917 -504 -2633 -1194 -364 -351 -636 -719
-862 -1170 -239 -474 -369 -907 -437 -1455 -25 -207 -25 -753 0 -960 89 -714
316 -1334 700 -1910 159 -238 326 -441 541 -656 348 -348 717 -612 1151 -826
772 -379 1646 -518 2500 -397 1858 263 3352 1724 3649 3569 45 277 51 360 51
705 0 423 -25 642 -114 1010 -367 1512 -1534 2720 -3032 3139 -255 71 -546
123 -824 146 -141 12 -547 11 -690 -1z m671 -1244 c930 -98 1740 -591 2257
-1375 96 -146 245 -438 301 -590 85 -232 149 -493 178 -730 17 -138 17 -582 0
-720 -84 -678 -377 -1293 -845 -1777 -1028 -1063 -2674 -1240 -3909 -420 -450
298 -810 708 -1048 1192 -131 265 -206 484 -260 755 -46 228 -55 333 -55 610
0 277 9 382 55 610 54 270 129 488 260 755 142 292 316 537 545 774 503 518
1156 837 1875 915 173 19 470 19 646 1z"/>
</g>
</svg>
