<?xml version="1.0" standalone="no"?>
<!DOCTYPE svg PUBLIC "-//W3C//DTD SVG 20010904//EN"
 "http://www.w3.org/TR/2001/REC-SVG-20010904/DTD/svg10.dtd">
<svg version="1.0" xmlns="http://www.w3.org/2000/svg"
 width="600.000000pt" height="600.000000pt" viewBox="0 0 600.000000 600.000000"
 preserveAspectRatio="xMidYMid meet">
<metadata>
Created by potrace 1.16, written by Peter Selinger 2001-2019
</metadata>
<g transform="translate(0.000000,600.000000) scale(0.100000,-0.100000)"
fill="#000000" stroke="none">
<path d="M2355 5013 c-116 -10 -339 -47 -440 -73 -460 -119 -758 -341 -860
-640 -53 -156 -69 -473 -69 -1395 -1 -814 5 -995 34 -1023 9 -9 25 -48 34 -87
88 -357 368 -664 651 -714 33 -6 112 -20 175 -31 182 -33 360 -48 720 -61 898
-32 1475 43 1869 241 176 88 309 210 375 343 40 81 88 276 111 452 69 533 81
1746 20 2080 -11 63 -33 116 -99 251 -47 94 -103 194 -125 222 -165 209 -596
338 -1326 397 -424 34 -915 52 -1070 38z m561 -122 c-15 -17 -38 -20 -194 -25
-484 -18 -699 -52 -936 -152 -181 -76 -356 -218 -460 -373 -50 -75 -105 -192
-106 -224 0 -10 -12 -22 -27 -28 -15 -6 -31 -16 -35 -22 -4 -7 -8 -75 -8 -151
0 -77 -2 -137 -5 -134 -3 3 -10 56 -15 118 -6 63 -15 119 -21 127 -25 30 85
275 177 395 221 286 515 419 1014 458 189 14 421 27 539 29 92 1 94 1 77 -18z
m-236 -201 l85 -2 -80 -18 c-44 -10 -136 -28 -205 -39 -69 -11 -161 -31 -206
-44 l-81 -23 -10 27 c-11 27 -9 29 36 43 127 41 267 66 341 60 19 -2 73 -3
120 -4z m1416 -255 c64 -41 117 -104 155 -181 30 -64 36 -94 19 -94 -5 0 -20
-16 -33 -36 l-25 -35 -31 40 c-17 22 -67 70 -111 107 -44 37 -80 73 -80 80 0
13 -40 140 -55 177 -7 16 -2 16 51 -4 33 -12 82 -36 110 -54z m590 -87 c85
-88 98 -112 100 -185 1 -33 5 -90 8 -125 l6 -63 -20 68 c-35 117 -78 219 -124
295 -25 39 -42 72 -38 72 4 0 35 -28 68 -62z m-2896 -29 c-28 -27 -68 -74 -89
-102 -35 -47 -58 -85 -163 -275 -16 -29 -38 -92 -48 -140 -18 -87 -63 -226
-94 -292 -17 -35 -17 -34 -11 55 11 180 72 387 156 528 51 86 165 203 240 246
30 17 55 31 57 31 2 0 -20 -23 -48 -51z m740 -178 c0 -5 -25 -23 -55 -40 -30
-17 -55 -33 -55 -35 0 -2 20 -16 45 -31 127 -74 150 -247 48 -356 -147 -158
-403 -58 -403 158 0 130 99 232 227 233 48 0 53 2 73 34 18 31 27 35 68 39 26
2 48 4 50 5 1 1 2 -2 2 -7z m1496 -615 c42 -80 74 -199 74 -269 l0 -50 -41 64
c-23 35 -60 87 -84 114 -42 50 -42 50 -34 105 4 30 8 80 8 110 l1 55 21 -30
c11 -16 36 -61 55 -99z m-279 -90 c162 -43 257 -148 300 -333 12 -54 17 -147
20 -446 5 -430 -3 -404 88 -256 25 40 45 71 45 67 0 -11 -59 -135 -94 -196
-28 -49 -36 -75 -36 -113 0 -48 -1 -49 -31 -49 -26 0 -45 -15 -121 -95 -50
-53 -127 -123 -172 -156 -108 -81 -295 -172 -420 -204 -129 -33 -138 -31 -41
9 208 85 371 191 564 365 l84 76 -134 5 -134 5 -5 410 c-5 390 -6 412 -26 455
-51 111 -185 151 -303 91 -46 -24 -65 -45 -93 -106 -22 -49 -23 -60 -28 -450
l-5 -400 -202 -3 -203 -2 0 655 0 655 195 0 195 0 0 -87 0 -87 51 57 c55 62
115 102 194 129 62 22 237 24 312 4z m-1199 -668 l-3 -653 -202 -3 -203 -2 0
655 0 655 205 0 205 0 -2 -652z m-1374 -638 c45 -396 189 -646 466 -803 118
-67 312 -125 510 -152 219 -30 790 -30 1570 -1 l115 5 -90 -14 c-205 -32 -497
-48 -840 -48 -295 1 -374 4 -600 27 -143 15 -325 29 -404 32 l-144 5 -106 61
c-175 100 -245 162 -329 288 -134 201 -191 418 -183 690 5 161 8 154 35 -90z
m176 -22 c18 -46 48 -112 66 -148 29 -56 35 -81 44 -179 6 -62 9 -116 6 -118
-2 -3 -23 33 -45 79 -41 85 -85 245 -96 353 -4 33 -9 68 -11 78 -3 9 -3 17 -1
17 2 0 19 -37 37 -82z m1068 -177 c41 -11 81 -26 90 -34 27 -23 109 -68 170
-93 l57 -24 -42 0 c-23 0 -77 5 -120 11 -67 9 -85 16 -128 49 -58 45 -123 110
-109 110 5 0 42 -9 82 -19z m2292 -292 c0 -48 -3 -54 -56 -109 -65 -68 -168
-142 -271 -194 -94 -47 -105 -46 -24 2 87 51 264 227 324 323 11 16 21 29 23
29 2 0 4 -23 4 -51z m-2963 -78 c105 -75 300 -170 348 -170 22 0 72 -6 110
-15 236 -50 497 -67 1040 -67 531 1 701 11 913 56 37 7 68 12 70 11 7 -8 -130
-55 -213 -74 -179 -42 -259 -47 -765 -47 -474 0 -664 7 -1021 40 -284 26 -447
77 -593 183 l-48 35 36 19 c26 13 38 27 43 48 3 17 7 30 9 30 2 0 34 -22 71
-49z"/>
</g>
</svg>
