<?xml version="1.0" standalone="no"?>
<!DOCTYPE svg PUBLIC "-//W3C//DTD SVG 20010904//EN"
 "http://www.w3.org/TR/2001/REC-SVG-20010904/DTD/svg10.dtd">
<svg version="1.0" xmlns="http://www.w3.org/2000/svg"
 width="1200.000000pt" height="739.000000pt" viewBox="0 0 1200.000000 739.000000"
 preserveAspectRatio="xMidYMid meet">
<metadata>
Created by potrace 1.16, written by Peter Selinger 2001-2019
</metadata>
<g transform="translate(0.000000,739.000000) scale(0.100000,-0.100000)"
fill="#000000" stroke="none">
<path d="M3690 4459 c-170 -18 -228 -38 -405 -137 -42 -23 -125 -104 -118
-114 3 -6 1 -8 -4 -5 -15 9 -57 -36 -114 -122 -102 -156 -145 -309 -137 -495
5 -112 40 -276 60 -276 5 0 6 -4 3 -10 -3 -5 -1 -19 6 -31 9 -18 13 -19 21 -8
7 10 7 7 3 -9 -9 -32 52 -131 70 -114 5 4 5 1 1 -6 -9 -15 12 -45 25 -36 5 3
6 -1 4 -8 -3 -7 20 -38 52 -68 31 -30 50 -46 42 -36 -13 18 -13 18 8 5 12 -7
20 -15 18 -18 -6 -6 26 -41 37 -41 5 0 19 -9 31 -20 12 -11 27 -18 35 -15 7 2
11 1 8 -4 -3 -5 11 -17 32 -26 20 -10 45 -22 56 -27 14 -8 17 -7 11 2 -4 7 5
3 21 -8 32 -24 154 -56 154 -41 0 5 61 8 148 6 81 -2 167 -1 192 3 28 5 -27 8
-147 9 -105 0 -194 5 -197 9 -3 5 86 8 197 7 111 -1 184 0 162 2 -22 3 -43 10
-47 16 -5 9 -12 9 -25 1 -10 -6 -27 -9 -38 -6 -11 3 -62 7 -112 9 -51 2 -93 9
-93 14 0 5 43 9 95 9 57 0 95 4 95 10 0 6 -33 10 -80 10 l-80 0 0 90 c0 82 2
90 19 90 16 0 20 11 26 80 l7 80 54 0 54 0 0 -80 0 -80 30 0 30 0 0 80 0 80
-30 0 -30 0 0 75 c0 58 -4 77 -15 81 -12 5 -15 24 -15 85 l0 79 35 0 35 0 0
80 0 80 60 0 61 0 -3 78 -3 77 -37 3 c-37 3 -38 4 -38 43 0 28 4 39 15 39 11
0 15 11 15 40 0 33 3 40 19 40 15 0 21 -8 24 -37 l4 -38 1 40 c0 22 1 75 1
118 1 69 3 77 20 77 16 0 20 11 26 80 4 44 11 77 16 74 5 -3 9 1 9 8 0 9 3 9
10 -2 9 -13 10 -13 10 0 0 13 1 13 10 0 9 -13 10 -13 10 0 0 13 1 13 10 0 9
-13 10 -13 10 0 0 9 3 11 8 5 4 -6 49 -9 110 -7 l102 3 0 39 0 39 63 4 c34 2
10 4 -53 3 -63 0 -189 2 -280 4 -139 4 -115 5 160 10 l325 5 -371 3 c-204 1
-384 4 -400 6 -16 2 -63 0 -104 -5z"/>
</g>
</svg>
