<?xml version="1.0" standalone="no"?>
<!DOCTYPE svg PUBLIC "-//W3C//DTD SVG 20010904//EN"
 "http://www.w3.org/TR/2001/REC-SVG-20010904/DTD/svg10.dtd">
<svg version="1.0" xmlns="http://www.w3.org/2000/svg"
 width="302.000000pt" height="122.000000pt" viewBox="0 0 302.000000 122.000000"
 preserveAspectRatio="xMidYMid meet">
<metadata>
Created by potrace 1.16, written by Peter Selinger 2001-2019
</metadata>
<g transform="translate(0.000000,122.000000) scale(0.100000,-0.100000)"
fill="#000000" stroke="none">
<path d="M452 1010 c-103 -37 -179 -108 -230 -218 -23 -49 -27 -69 -27 -152 0
-69 5 -104 18 -130 l17 -35 -7 40 c-5 22 -8 83 -8 135 0 83 4 102 28 152 36
74 127 159 204 190 57 23 64 23 548 28 l490 6 -490 1 c-459 2 -493 1 -543 -17z"/>
<path d="M471 933 c-67 -24 -153 -113 -181 -188 -43 -118 -3 -271 91 -346 85
-68 107 -72 384 -73 l250 -1 3 313 2 312 -252 -1 c-203 0 -262 -4 -297 -16z
m357 -372 c-40 -42 -76 -77 -80 -79 -4 -2 -6 9 -5 25 2 27 1 28 -58 33 l-60 5
0 95 0 95 61 5 c60 5 61 5 60 34 -2 27 4 24 76 -54 l78 -83 -72 -76z"/>
</g>
</svg>
