<?xml version="1.0" standalone="no"?>
<!DOCTYPE svg PUBLIC "-//W3C//DTD SVG 20010904//EN"
 "http://www.w3.org/TR/2001/REC-SVG-20010904/DTD/svg10.dtd">
<svg version="1.0" xmlns="http://www.w3.org/2000/svg"
 width="1365.000000pt" height="1366.000000pt" viewBox="0 0 1365.000000 1366.000000"
 preserveAspectRatio="xMidYMid meet">
<metadata>
Created by potrace 1.16, written by Peter Selinger 2001-2019
</metadata>
<g transform="translate(0.000000,1366.000000) scale(0.100000,-0.100000)"
fill="#000000" stroke="none">
<path d="M2050 7706 c0 -2 25 -57 56 -122 31 -66 75 -162 99 -214 23 -52 111
-243 195 -425 197 -428 257 -558 366 -797 l89 -197 122 -1 122 0 34 73 c280
613 583 1266 587 1266 3 0 62 -127 132 -282 121 -268 235 -522 400 -887 l75
-165 125 -3 125 -3 98 213 c54 117 126 274 160 348 34 74 171 370 304 657 132
287 241 527 241 533 0 7 -52 10 -157 8 l-157 -3 -135 -296 c-75 -163 -212
-463 -306 -668 -93 -204 -172 -371 -175 -371 -3 0 -29 53 -57 118 -65 144
-168 372 -353 782 -78 173 -155 343 -171 378 l-28 62 -120 0 -121 0 -19 -38
c-10 -20 -113 -244 -229 -497 -281 -614 -269 -589 -312 -681 -21 -45 -41 -91
-45 -103 -3 -11 -9 -21 -13 -21 -4 0 -80 161 -169 358 -89 196 -226 498 -304
670 l-142 312 -158 0 c-88 0 -159 -2 -159 -4z"/>
<path d="M5555 7698 c-3 -7 -4 -402 -3 -878 l3 -865 165 0 165 0 0 875 0 875
-163 3 c-124 2 -164 0 -167 -10z"/>
<path d="M6220 6830 l0 -880 160 0 160 0 2 605 3 605 160 -221 c88 -122 185
-255 216 -298 96 -131 169 -231 339 -465 l164 -226 136 0 135 1 94 132 c52 73
141 195 196 272 56 77 191 264 300 415 109 151 218 301 242 333 l43 59 0 -606
0 -606 160 0 160 0 0 880 0 880 -139 0 -139 0 -89 -122 c-77 -107 -245 -338
-462 -638 -53 -74 -211 -292 -419 -579 -34 -47 -65 -87 -70 -88 -4 -2 -20 16
-36 40 -17 23 -60 83 -96 132 -106 145 -402 551 -442 608 -20 29 -72 100 -115
159 -43 59 -140 192 -216 297 l-138 191 -154 0 -155 0 0 -880z"/>
<path d="M10039 7427 c-102 -155 -361 -546 -576 -868 -214 -322 -393 -591
-397 -597 -6 -10 34 -12 170 -10 l178 3 51 76 c27 41 75 113 104 160 30 46
109 167 176 269 67 102 187 286 267 410 81 124 189 290 241 369 l95 144 76
-116 c71 -109 286 -444 518 -807 55 -85 150 -234 212 -330 l112 -175 177 -3
c97 -1 177 1 177 5 0 5 -145 227 -323 495 -177 268 -436 661 -576 873 l-254
385 -121 0 -121 -1 -186 -282z"/>
</g>
</svg>
