<?xml version="1.0" standalone="no"?>
<!DOCTYPE svg PUBLIC "-//W3C//DTD SVG 20010904//EN"
 "http://www.w3.org/TR/2001/REC-SVG-20010904/DTD/svg10.dtd">
<svg version="1.0" xmlns="http://www.w3.org/2000/svg"
 width="400.000000pt" height="400.000000pt" viewBox="0 0 400.000000 400.000000"
 preserveAspectRatio="xMidYMid meet">
<metadata>
Created by potrace 1.16, written by Peter Selinger 2001-2019
</metadata>
<g transform="translate(0.000000,400.000000) scale(0.100000,-0.100000)"
fill="#000000" stroke="none">
<path d="M2560 3486 c-287 -61 -502 -265 -581 -551 -23 -86 -30 -219 -16 -313
l8 -54 -68 7 c-367 35 -695 148 -993 343 -149 97 -239 172 -378 317 l-123 126
-29 -63 c-49 -109 -64 -181 -64 -313 -1 -144 15 -211 79 -340 50 -102 120
-191 195 -250 27 -22 46 -41 41 -43 -21 -7 -172 28 -233 53 -104 44 -98 45
-91 -21 19 -209 117 -401 269 -528 81 -66 146 -102 249 -137 l80 -27 -40 -9
c-22 -4 -97 -8 -166 -8 l-127 0 20 -50 c53 -135 185 -287 313 -363 88 -52 208
-92 296 -99 82 -7 81 -10 -29 -81 -92 -59 -217 -123 -306 -156 -172 -65 -424
-103 -598 -92 -54 4 -98 5 -98 2 0 -10 169 -102 269 -147 456 -203 962 -243
1456 -114 374 97 681 278 956 562 388 400 619 971 619 1529 l0 91 45 32 c68
49 204 187 267 271 31 41 56 76 55 77 -1 1 -40 -11 -85 -28 -92 -32 -213 -64
-282 -74 l-45 -6 30 23 c101 76 195 188 248 293 50 101 50 102 -50 52 -97 -49
-235 -101 -326 -122 l-59 -14 -69 58 c-78 66 -204 133 -294 157 -83 22 -264
27 -345 10z"/>
</g>
</svg>
