<?xml version="1.0" standalone="no"?>
<!DOCTYPE svg PUBLIC "-//W3C//DTD SVG 20010904//EN"
 "http://www.w3.org/TR/2001/REC-SVG-20010904/DTD/svg10.dtd">
<svg version="1.0" xmlns="http://www.w3.org/2000/svg"
 width="461.000000pt" height="460.000000pt" viewBox="0 0 461.000000 460.000000"
 preserveAspectRatio="xMidYMid meet">
<metadata>
Created by potrace 1.16, written by Peter Selinger 2001-2019
</metadata>
<g transform="translate(0.000000,460.000000) scale(0.100000,-0.100000)"
fill="#000000" stroke="none">
<path d="M2065 3734 c-171 -28 -376 -106 -520 -197 -351 -220 -594 -585 -660
-992 -19 -116 -19 -354 0 -470 37 -230 131 -450 274 -640 216 -288 555 -492
916 -550 116 -19 354 -19 470 0 179 29 382 104 530 198 351 220 594 585 660
992 19 116 19 354 0 470 -37 230 -133 453 -274 640 -222 292 -554 492 -916
550 -112 18 -370 18 -480 -1z m472 -20 c140 -22 256 -59 388 -123 298 -146
520 -368 666 -666 98 -200 141 -388 141 -615 0 -227 -43 -415 -141 -615 -146
-298 -368 -520 -666 -666 -200 -98 -388 -141 -615 -141 -227 0 -415 43 -615
141 -298 146 -520 368 -666 666 -98 201 -140 385 -140 615 0 230 42 414 140
615 140 286 351 503 633 650 270 141 566 188 875 139z"/>
<path d="M2175 3037 c-118 -39 -207 -117 -258 -225 -30 -63 -32 -73 -32 -182
0 -104 3 -121 27 -172 31 -66 95 -140 156 -178 l42 -28 -27 -7 c-16 -3 -56
-20 -90 -36 -225 -107 -382 -346 -383 -582 l0 -68 33 3 c32 3 32 3 40 73 28
269 210 482 468 551 84 22 224 22 308 0 258 -69 440 -282 468 -551 8 -70 8
-70 41 -73 l32 -3 0 68 c-1 256 -178 503 -432 603 l-67 26 35 19 c52 28 132
118 162 182 24 52 27 69 27 173 0 109 -2 119 -32 182 -41 88 -113 160 -201
201 -60 28 -78 32 -172 34 -67 2 -120 -2 -145 -10z m262 -79 c69 -25 155 -102
188 -168 89 -175 17 -384 -163 -472 -60 -30 -75 -33 -157 -33 -82 0 -97 3
-157 33 -224 110 -270 396 -91 564 112 104 238 130 380 76z"/>
</g>
</svg>
