<?xml version="1.0" standalone="no"?>
<!DOCTYPE svg PUBLIC "-//W3C//DTD SVG 20010904//EN"
 "http://www.w3.org/TR/2001/REC-SVG-20010904/DTD/svg10.dtd">
<svg version="1.0" xmlns="http://www.w3.org/2000/svg"
 width="1000.000000pt" height="1000.000000pt" viewBox="0 0 1000.000000 1000.000000"
 preserveAspectRatio="xMidYMid meet">
<metadata>
Created by potrace 1.16, written by Peter Selinger 2001-2019
</metadata>
<g transform="translate(0.000000,1000.000000) scale(0.100000,-0.100000)"
fill="#000000" stroke="none">
<path d="M3520 8129 c-173 -4 -425 -12 -560 -18 -135 -6 -357 -16 -495 -21
-612 -27 -872 -57 -1044 -124 -246 -95 -447 -260 -562 -461 -119 -207 -223
-566 -249 -860 -38 -422 -51 -596 -61 -801 -13 -281 -6 -1722 10 -1899 6 -66
18 -201 26 -300 38 -454 59 -584 131 -810 140 -440 360 -674 752 -800 171 -55
513 -101 856 -115 132 -6 340 -15 461 -20 686 -29 1041 -35 2305 -35 877 0
1426 4 1625 13 1379 56 1615 74 1805 134 105 33 260 112 345 175 273 203 415
478 510 983 15 79 25 181 50 475 8 99 20 234 26 300 16 177 23 1618 10 1899
-10 205 -23 379 -61 801 -26 294 -130 653 -249 860 -115 201 -316 366 -562
461 -173 67 -433 98 -1049 124 -140 6 -354 15 -475 20 -652 29 -2694 40 -3545
19z m770 -1896 c52 -28 149 -79 215 -113 66 -34 170 -88 230 -120 134 -70 534
-279 705 -368 69 -35 170 -88 225 -117 55 -29 172 -90 260 -135 88 -46 212
-111 275 -144 64 -34 150 -79 193 -101 76 -40 76 -40 54 -57 -12 -10 -35 -23
-52 -30 -16 -6 -79 -39 -140 -71 -60 -33 -535 -280 -1055 -549 -520 -270 -982
-510 -1027 -534 l-83 -44 0 1246 0 1245 53 -29 c28 -16 95 -52 147 -79z"/>
</g>
</svg>
